:SAMPLES-PER-SECOND 30
:FULLY-SPECIFIED
:DEGREES
178
root  43.4339 37.7714 -1.9667 -18.4478 -85.0023 25.3301
RightUpLeg  -34.3172 -12.4656 -5.76568
RightLeg  33.6926 -3.05919 -2.44813
RightFoot  -5.13949 -0.115519 1.47841
RightToes  2.32829e-010 0 -3.6325e-017
Spine  37.7587 -2.25621 5.8979
Spine1  -0.586494 0.0748519 -3.61376
HEad  -45.1257 -1.78621 -2.51612
LeftShoulder1  12.0901 -19.6108 -45.5714
LeftArm  -2.74079 -31.6502 -30.1181
LeftForeArm  16.0126 -35.2841 -6.99697
LeftHand  -0.244104 0.0205437 5.32207
RightShoulder  6.95582 13.5717 34.7615
RightArm  -7.14371 34.5752 25.2912
RightForeArm  -32.01 29.0418 7.77943
RightHand  -1.26845 5.0914 -14.2771
LeftUpLeg  -34.6395 10.3092 -2.73126
LeftLeg  31.5108 3.11685 2.41242
LeftFoot  -4.31734 0.0190913 0.122244
LeftToes  1.42787e-010 7.94111e-011 2.6399e-011
179
root  43.3825 37.746 -1.93438 -19.3919 -84.9076 25.9712
RightUpLeg  -34.0702 -12.289 -6.05684
RightLeg  34.0214 -3.1781 -2.56206
RightFoot  -5.00867 -0.111267 1.39604
RightToes  2.32829e-010 0 -3.6325e-017
Spine  37.909 -2.25317 5.85431
Spine1  -1.20491 0.0637928 -3.67933
HEad  -45.4627 -1.85107 -2.50938
LeftShoulder1  12.0668 -19.8728 -44.9454
LeftArm  -5.33314 -33.5285 -29.9554
LeftForeArm  16.6809 -36.6629 -7.33947
LeftHand  -0.244104 0.0205437 5.32207
RightShoulder  6.86155 13.6493 34.0356
RightArm  -9.48719 35.8376 23.744
RightForeArm  -32.8588 30.8231 8.28123
RightHand  -1.19855 4.72796 -13.9751
LeftUpLeg  -34.4268 10.1028 -2.81141
LeftLeg  31.8037 3.23555 2.51531
LeftFoot  -4.01939 -0.0226063 0.73206
LeftToes  1.42787e-010 7.94111e-011 2.6399e-011
180
root  43.3486 37.72 -1.8921 -20.7756 -84.8289 27.1708
RightUpLeg  -34.024 -12.1697 -6.3702
RightLeg  34.3329 -3.15364 -2.57198
RightFoot  -4.77494 -0.103141 1.23093
RightToes  2.32829e-010 0 -3.6325e-017
Spine  38.0386 -2.34036 5.83335
Spine1  -1.83873 -0.00983715 -3.93859
HEad  -46.111 -1.71371 -2.49805
LeftShoulder1  11.928 -20.0915 -43.9653
LeftArm  -8.23348 -35.9292 -29.6116
LeftForeArm  17.5215 -37.9474 -7.65692
LeftHand  -0.244104 0.0205437 5.32207
RightShoulder  6.78068 13.7631 33.3075
RightArm  -12.2798 37.6228 21.8404
RightForeArm  -33.6155 32.7802 8.85055
RightHand  -1.20071 4.64944 -14.1048
LeftUpLeg  -34.3179 9.81136 -2.96225
LeftLeg  32.0175 3.41019 2.65063
LeftFoot  -3.69613 -0.0758234 1.46862
LeftToes  1.42787e-010 7.94111e-011 2.6399e-011
181
root  43.3242 37.6914 -1.84136 -22.2061 -84.8321 28.5693
RightUpLeg  -34.2234 -12.3004 -6.522
RightLeg  34.6664 -3.04796 -2.5236
RightFoot  -4.28851 -0.0767278 0.783202
RightToes  2.32829e-010 0 -3.6325e-017
Spine  38.0268 -2.45046 5.7921
Spine1  -2.42607 -0.143722 -4.20017
HEad  -47.1372 -1.30001 -2.50189
LeftShoulder1  11.6904 -20.1411 -42.9404
LeftArm  -11.4886 -39.1185 -28.7103
LeftForeArm  18.2772 -39.0457 -7.93544
LeftHand  -0.244104 0.0205437 5.32207
RightShoulder  6.62586 13.8023 32.3238
RightArm  -15.9223 40.1239 19.9184
RightForeArm  -34.3037 34.4949 9.37403
RightHand  -1.08867 4.00196 -13.6507
LeftUpLeg  -34.4148 9.57992 -3.13731
LeftLeg  32.2905 3.63356 2.82644
LeftFoot  -3.42052 -0.122907 2.0742
LeftToes  1.42787e-010 7.94111e-011 2.6399e-011
182
root  43.3234 37.6442 -1.78326 -23.2529 -84.9334 29.4319
RightUpLeg  -34.3776 -12.6657 -6.51926
RightLeg  35.0952 -2.80253 -2.37603
RightFoot  -3.69518 -0.0435528 0.27291
RightToes  2.32829e-010 0 -3.6325e-017
Spine  38.1621 -2.49645 5.82773
Spine1  -3.17576 -0.216983 -4.33478
HEad  -48.0649 -1.04477 -2.56193
LeftShoulder1  11.5018 -20.2129 -42.0614
LeftArm  -15.3708 -42.697 -27.2003
LeftForeArm  17.8787 -40.1308 -8.29442
LeftHand  -0.244104 0.0205437 5.32207
RightShoulder  6.3291 13.693 30.8307
RightArm  -20.8824 42.8947 18.0861
RightForeArm  -36.0684 36.152 9.94338
RightHand  -0.854746 2.56307 -12.6543
LeftUpLeg  -34.5553 9.46008 -3.22172
LeftLeg  32.8618 3.8945 3.06199
LeftFoot  -3.20812 -0.157188 2.48364
LeftToes  1.42787e-010 7.94111e-011 2.6399e-011
183
root  43.3617 37.5826 -1.70427 -23.7941 -85.1508 29.5261
RightUpLeg  -34.4229 -13.0295 -6.50499
RightLeg  35.6322 -2.27251 -2.01255
RightFoot  -3.12855 -0.0182619 -0.0419796
RightToes  2.32829e-010 0 -3.6325e-017
Spine  38.6698 -2.51462 6.06578
Spine1  -4.35757 -0.174333 -4.50939
HEad  -48.6347 -1.07754 -2.69956
LeftShoulder1  11.381 -20.4709 -41.0973
LeftArm  -20.1723 -45.8807 -25.2403
LeftForeArm  16.9688 -42.0714 -8.98936
LeftHand  -0.244104 0.0205437 5.32207
RightShoulder  5.9352 13.4743 28.955
RightArm  -27.1846 45.3211 16.2074
RightForeArm  -38.2611 38.9686 10.954
RightHand  -0.732299 1.58057 -12.339
LeftUpLeg  -34.6041 9.34104 -3.16164
LeftLeg  33.6829 4.20234 3.36707
LeftFoot  -3.02173 -0.187429 2.82744
LeftToes  1.42787e-010 7.94111e-011 2.6399e-011
184
root  43.418 37.5355 -1.59184 -24.5651 -85.5675 29.8676
RightUpLeg  -34.5527 -13.2245 -6.48926
RightLeg  36.1266 -1.61139 -1.52953
RightFoot  -2.45516 -0.00164949 -0.192835
RightToes  2.32829e-010 0 -3.6325e-017
Spine  39.245 -2.55419 6.42241
Spine1  -5.94148 -0.0829729 -4.90055
HEad  -49.0656 -0.940227 -2.85855
LeftShoulder1  11.1701 -20.7245 -39.7992
LeftArm  -25.9118 -48.4377 -22.867
LeftForeArm  16.95 -45.4054 -10.1857
LeftHand  -0.244104 0.0205437 5.32207
RightShoulder  5.53708 13.2299 27.0348
RightArm  -34.4053 47.3615 14.4091
RightForeArm  -38.7479 43.6893 12.7514
RightHand  -0.793457 1.65446 -13.1978
LeftUpLeg  -34.7171 9.38862 -3.05677
LeftLeg  34.5666 4.41916 3.62771
LeftFoot  -2.76299 -0.217389 3.12051
LeftToes  1.42787e-010 7.94111e-011 2.6399e-011
